<svg width="60" height="60" viewBox="0 0 60 60" fill="none" xmlns="http://www.w3.org/2000/svg">
  <!-- Cloud shape -->
  <path d="M45 35C48.3137 35 51 32.3137 51 29C51 25.6863 48.3137 23 45 23C44.7581 23 44.5214 23.0214 44.2917 23.0625C44.0974 18.5936 40.3736 15 35.8333 15C32.8387 15 30.2097 16.5691 28.7361 18.9028C28.2361 18.8194 27.7222 18.7778 27.1944 18.7778C23.2183 18.7778 20 21.9961 20 25.9722C20 26.1597 20.0069 26.3472 20.0208 26.5278C17.1597 27.1597 15 29.6875 15 32.7778C15 36.3542 17.9236 39.2778 21.5 39.2778H45C45 39.2778 45 35 45 35Z" fill="#4A5568"/>
  
  <!-- Bar chart inside cloud -->
  <rect x="22" y="32" width="3" height="5" rx="0.5" fill="white"/>
  <rect x="26" y="29" width="3" height="8" rx="0.5" fill="white"/>
  <rect x="30" y="26" width="3" height="11" rx="0.5" fill="white"/>
  <rect x="34" y="23" width="3" height="14" rx="0.5" fill="white"/>
  
  <!-- Growth arrow -->
  <path d="M39 20L44 15M44 15L44 20M44 15L39 15" stroke="white" stroke-width="2" stroke-linecap="round" stroke-linejoin="round"/>
  
  <!-- Data dots -->
  <circle cx="48" cy="20" r="1.5" fill="#4A5568"/>
  <rect x="47" y="24" width="2" height="2" rx="0.5" fill="#4A5568"/>
</svg>