<svg width="60" height="60" viewBox="0 0 60 60" fill="none" xmlns="http://www.w3.org/2000/svg">
  <!-- Cloud shape maximized to fill entire space -->
  <path d="M54 40C56.7614 40 59 37.7614 59 35C59 32.2386 56.7614 30 54 30C53.6 30 53.21 30.05 52.84 30.14C52.4 20.89 44.67 13.5 35 13.5C29 13.5 23.65 16.45 20.5 21C19.5 20.75 18.5 20.625 17.5 20.625C9.45 20.625 3 27.07 3 35.125C3 35.5 3.02 35.875 3.06 36.25C1.2 37.5 0 39.75 0 42.25C0 46.25 3.25 49.5 7.25 49.5H54V40Z" fill="#1CBFEF"/>
  
  <!-- Bar chart inside cloud - larger -->
  <rect x="18" y="40" width="5" height="10" rx="0.5" fill="white"/>
  <rect x="25" y="35" width="5" height="15" rx="0.5" fill="white"/>
  <rect x="32" y="30" width="5" height="20" rx="0.5" fill="white"/>
  <rect x="39" y="25" width="5" height="25" rx="0.5" fill="#0B2A4A"/>
  
  <!-- Arrow - larger -->
  <path d="M48 22L54 16M54 16V22M54 16H48" stroke="#0B2A4A" stroke-width="2.5" stroke-linecap="round" stroke-linejoin="round"/>
</svg>