<svg width="60" height="60" viewBox="0 0 60 60" fill="none" xmlns="http://www.w3.org/2000/svg">
  <!-- Cloud shape enlarged to fill space -->
  <path d="M48 42C51.3137 42 54 39.3137 54 36C54 32.6863 51.3137 30 48 30C47.6371 30 47.2823 30.0348 46.9375 30.1016C46.5703 22.4509 40.293 16.5 32.625 16.5C27.6094 16.5 23.2031 19.2891 20.875 23.4531C20.0625 23.2891 19.2266 23.2031 18.375 23.2031C12.0898 23.2031 7 28.293 7 34.5781C7 34.8906 7.0156 35.2031 7.0469 35.5078C3.12891 36.5391 0.375 40.2578 0.375 44.6719C0.375 50.0547 4.81641 54.5 10.2031 54.5H48V42Z" fill="#1CBFEF"/>
  
  <!-- Bar chart enlarged -->
  <rect x="15" y="46" width="4" height="7" rx="0.5" fill="#0B2A4A"/>
  <rect x="21" y="42" width="4" height="11" rx="0.5" fill="#0B2A4A"/>
  <rect x="27" y="38" width="4" height="15" rx="0.5" fill="#0B2A4A"/>
  <rect x="33" y="34" width="4" height="19" rx="0.5" fill="#1CBFEF"/>
  
  <!-- Arrow enlarged -->
  <path d="M42 30L48 24M48 24V30M48 24H42" stroke="#1CBFEF" stroke-width="2" stroke-linecap="round" stroke-linejoin="round"/>
</svg>