<svg width="60" height="60" viewBox="0 0 60 60" fill="none" xmlns="http://www.w3.org/2000/svg">
  <!-- Cloud shape with proper padding -->
  <path d="M42 32C44.2091 32 46 30.2091 46 28C46 25.7909 44.2091 24 42 24C41.8258 24 41.6553 24.0161 41.4896 24.0469C41.3537 20.9452 38.7802 18.5 35.625 18.5C33.6885 18.5 31.9915 19.5518 31.0833 21.1042C30.7361 21.0417 30.3792 21.0083 30.0125 21.0083C27.2512 21.0083 25 23.2495 25 26C25 26.1306 25.0052 26.2604 25.0156 26.3889C23.1198 26.8198 21.75 28.5156 21.75 30.5833C21.75 33.0271 23.6927 35 26.125 35H42V32Z" fill="#2D3748"/>
  
  <!-- Bar chart inside cloud -->
  <rect x="27" y="30" width="2.5" height="4" rx="0.5" fill="white"/>
  <rect x="30" y="28" width="2.5" height="6" rx="0.5" fill="white"/>
  <rect x="33" y="26" width="2.5" height="8" rx="0.5" fill="white"/>
  <rect x="36" y="24" width="2.5" height="10" rx="0.5" fill="white"/>
  
  <!-- Growth arrow -->
  <path d="M40 22L43 19M43 19V22M43 19H40" stroke="white" stroke-width="1.5" stroke-linecap="round" stroke-linejoin="round"/>
  
  <!-- Trigger indicator (lightning bolt) -->
  <path d="M44 21L42 24H45L43 27" stroke="#FBB040" stroke-width="1.5" stroke-linecap="round" stroke-linejoin="round" fill="none"/>
  
  <!-- Data dot -->
  <rect x="43.5" y="28.5" width="1.5" height="1.5" rx="0.5" fill="#2D3748"/>
</svg>