<svg width="60" height="60" viewBox="0 0 60 60" fill="none" xmlns="http://www.w3.org/2000/svg">
  <!-- Background circle -->
  <rect width="60" height="60" rx="8" fill="#0B2A4A"/>
  
  <!-- Cloud shape in Cribops blue -->
  <path d="M38 34C39.1046 34 40 33.1046 40 32C40 30.8954 39.1046 30 38 30C37.9121 30 37.8261 30.0091 37.7422 30.0264C37.6614 28.2817 36.1888 26.9063 34.4141 26.9063C33.3248 26.9063 32.3702 27.4979 31.8594 28.3711C31.6641 28.3359 31.4633 28.3172 31.2571 28.3172C29.6788 28.3172 28.3906 29.5779 28.3906 31.125C28.3906 31.1984 28.3929 31.2715 28.3975 31.3438C27.3799 31.5862 26.6094 32.4901 26.6094 33.5547C26.6094 34.8021 27.6146 35.8125 28.8516 35.8125H38V34Z" fill="#1CBFEF"/>
  
  <!-- Bar chart in light gray/white -->
  <rect x="29.5" y="32.5" width="1.5" height="2.5" rx="0.2" fill="#E5E5E5"/>
  <rect x="31.3" y="31" width="1.5" height="4" rx="0.2" fill="#F0F0F0"/>
  <rect x="33.1" y="29.5" width="1.5" height="5.5" rx="0.2" fill="#FFFFFF"/>
  <rect x="34.9" y="28" width="1.5" height="7" rx="0.2" fill="#1CBFEF"/>
  
  <!-- Arrow in bright blue -->
  <path d="M37 27L38.5 25.5M38.5 25.5V27M38.5 25.5H37" stroke="#1CBFEF" stroke-width="0.8" stroke-linecap="round" stroke-linejoin="round"/>
  
  <!-- Trigger indicator (lightning bolt) in white -->
  <path d="M40 26L38 29H41L39 32" stroke="#FFFFFF" stroke-width="1.2" stroke-linecap="round" stroke-linejoin="round" fill="none"/>
</svg>